{"title":"Broken Flowers.2005.SWESUB.DVDRip.XviD-Zen_Bud","uid":5556395,"size":1474331460,"categoryP":"video","categoryS":"movies","magnet":"?xt=urn:btih:2035d3ecd722da49fff0e5462623d181c5b96f2b&amp;dn=Broken+Flowers.2005.SWESUB.DVDRip.XviD-Zen_Bud&amp;tr=udp%3A%2F%2Ftracker.openbittorrent.com%3A80&amp;tr=udp%3A%2F%2Fopen.demonii.com%3A1337&amp;tr=udp%3A%2F%2Ftracker.coppersurfer.tk%3A6969&amp;tr=udp%3A%2F%2Fexodus.desync.com%3A6969","seeders":1,"leechers":0,"uploader":"Zen_Bud","files":-1,"time":1273699198,"description":"General\nComplete name                    : Broken Flowers..avi\nFormat                           : AVI\nFile size                        : 1.37 GiB\nDuration                         : 1h 41mn\nOverall bit rate                 : 1 942 Kbps\n\nVideo\nID                               : 0\nFormat                           : MPEG-4 Visual\nCodec ID/Hint                    : XviD\nDuration                         : 1h 41mn\nBit rate                         : 1 801 Kbps\nWidth                            : 720 pixels\nHeight                           : 570 pixels\nDisplay aspect ratio             : 16:9\nResolution                       : 8 bits\nColorimetry                      : 4:2:0\nScan type                        : Progressive\nBits/(Pixel*Frame)               : 0.176\nStream size                      : 1.27 GiB (93%)\nWriting library                  : XviD 1.1.2 (UTC 2006-11-01)\n\nAudio\nID                               : 1\nFormat                           : MPEG Audio\nCodec ID/Hint                    : MP3\nDuration                         : 1h 41mn\nBit rate                         : 128 Kbps\nChannel(s)                       : 2 channels\nSampling rate                    : 48.0 KHz\nStream size                      : 92.7 MiB (7%)\n\n\n","torrent":{"xt":"urn:btih:2035d3ecd722da49fff0e5462623d181c5b96f2b","amp;dn":"Broken+Flowers.2005.SWESUB.DVDRip.XviD-Zen_Bud","amp;tr":["udp%3A%2F%2Ftracker.openbittorrent.com%3A80","udp%3A%2F%2Fopen.demonii.com%3A1337","udp%3A%2F%2Ftracker.coppersurfer.tk%3A6969","udp%3A%2F%2Fexodus.desync.com%3A6969"],"infoHash":"2035d3ecd722da49fff0e5462623d181c5b96f2b","infoHashBuffer":{"type":"Buffer","data":[32,53,211,236,215,34,218,73,255,240,229,70,38,35,209,129,197,185,111,43]},"announce":[],"urlList":[]}}